<svg width="36" height="36" viewBox="0 0 36 36" fill="none" xmlns="http://www.w3.org/2000/svg">
<rect width="36" height="36" rx="18" fill="#2C2C2C"/>
<path d="M14.4999 19.1666C15.1443 19.1666 15.6666 18.6443 15.6666 18C15.6666 17.3556 15.1443 16.8333 14.4999 16.8333C13.8556 16.8333 13.3333 17.3556 13.3333 18C13.3333 18.6443 13.8556 19.1666 14.4999 19.1666Z" stroke="white" stroke-width="2" stroke-linecap="round" stroke-linejoin="round"/>
<path d="M21.4999 19.1666C22.1443 19.1666 22.6666 18.6443 22.6666 18C22.6666 17.3556 22.1443 16.8333 21.4999 16.8333C20.8556 16.8333 20.3333 17.3556 20.3333 18C20.3333 18.6443 20.8556 19.1666 21.4999 19.1666Z" stroke="white" stroke-width="2" stroke-linecap="round" stroke-linejoin="round"/>
<path d="M12.75 12.75C16.8333 11.5833 19.1667 11.5833 23.25 12.75" stroke="white" stroke-width="2" stroke-linecap="round" stroke-linejoin="round"/>
<path d="M12.1667 23.25C16.2501 24.4167 19.7501 24.4167 23.8334 23.25" stroke="white" stroke-width="2" stroke-linecap="round" stroke-linejoin="round"/>
<path d="M22.0833 23.8334C22.0833 25 23.8333 27.3334 24.4166 27.3334C26.1666 27.3334 27.7218 25.3885 28.4999 23.8334C29.2781 21.8885 29.0833 17.0282 26.7499 10.4167C25.0501 9.23252 23.2499 8.85335 21.4999 8.66669L20.3333 11.5834" stroke="white" stroke-width="2" stroke-linecap="round" stroke-linejoin="round"/>
<path d="M13.9168 23.8334C13.9168 25 12.3348 27.3334 11.7795 27.3334C10.1123 27.3334 8.6318 25.3885 7.89096 23.8334C7.15013 21.8885 7.33563 17.0282 9.55696 10.4167C11.1763 9.23252 12.8026 8.85335 14.5001 8.66669L15.6668 11.5834" stroke="white" stroke-width="2" stroke-linecap="round" stroke-linejoin="round"/>
</svg>
