<svg width="70" height="70" viewBox="0 0 70 70" fill="none" xmlns="http://www.w3.org/2000/svg">
<rect x="2" y="2" width="66" height="66" stroke="white" stroke-width="4"/>
<path d="M23.9013 30.5291C23.8274 29.7843 23.5104 29.2057 22.9503 28.7933C22.3902 28.3809 21.63 28.1747 20.6697 28.1747C20.0173 28.1747 19.4664 28.267 19.017 28.4517C18.5677 28.6302 18.223 28.8795 17.983 29.1996C17.7491 29.5196 17.6321 29.8828 17.6321 30.2891C17.6198 30.6276 17.6906 30.9231 17.8445 31.1754C18.0045 31.4278 18.223 31.6463 18.5 31.831C18.777 32.0095 19.0971 32.1664 19.4602 32.3018C19.8234 32.4311 20.2112 32.5419 20.6236 32.6342L22.3224 33.0405C23.1473 33.2251 23.9044 33.4714 24.5938 33.7791C25.2831 34.0869 25.8802 34.4654 26.3849 34.9148C26.8897 35.3641 27.2805 35.8935 27.5575 36.5028C27.8407 37.1122 27.9853 37.8108 27.9915 38.5987C27.9853 39.7559 27.6899 40.7592 27.1051 41.6087C26.5265 42.4519 25.6894 43.1075 24.5938 43.5753C23.5043 44.0369 22.1901 44.2678 20.6513 44.2678C19.1248 44.2678 17.7952 44.0339 16.6626 43.5661C15.5362 43.0982 14.656 42.4058 14.022 41.4886C13.3942 40.5653 13.0649 39.4235 13.0341 38.0632H16.9027C16.9458 38.6972 17.1274 39.2266 17.4474 39.6513C17.7737 40.0698 18.2076 40.3868 18.7493 40.6023C19.2971 40.8116 19.9157 40.9162 20.6051 40.9162C21.2822 40.9162 21.87 40.8177 22.3686 40.6207C22.8733 40.4238 23.2642 40.1499 23.5412 39.799C23.8182 39.4482 23.9567 39.045 23.9567 38.5895C23.9567 38.1648 23.8305 37.8078 23.5781 37.5185C23.3319 37.2292 22.9688 36.983 22.4886 36.7798C22.0147 36.5767 21.433 36.392 20.7436 36.2259L18.6847 35.7088C17.0904 35.321 15.8317 34.7147 14.9084 33.8899C13.9851 33.0651 13.5265 31.9541 13.5327 30.5568C13.5265 29.4119 13.8312 28.4117 14.4467 27.5561C15.0684 26.7005 15.9209 26.0327 17.0043 25.5526C18.0876 25.0724 19.3187 24.8324 20.6974 24.8324C22.1009 24.8324 23.3258 25.0724 24.3722 25.5526C25.4247 26.0327 26.2434 26.7005 26.8281 27.5561C27.4129 28.4117 27.7145 29.4027 27.733 30.5291H23.9013ZM38.7963 25.0909V44H34.7985V28.8857H34.6877L30.3574 31.6001V28.0547L35.0385 25.0909H38.7963ZM50.5476 44.2585C49.575 44.2524 48.6364 44.0893 47.7315 43.7692C46.8329 43.4491 46.0265 42.929 45.3125 42.2088C44.5985 41.4886 44.0322 40.5346 43.6136 39.3466C43.2012 38.1586 42.995 36.6998 42.995 34.9702C43.0012 33.3821 43.1828 31.9633 43.5398 30.7138C43.9029 29.4581 44.42 28.3932 45.0909 27.5192C45.768 26.6451 46.5774 25.9803 47.5192 25.5249C48.4609 25.0632 49.5166 24.8324 50.6861 24.8324C51.9479 24.8324 53.062 25.0786 54.0284 25.571C54.9948 26.0573 55.7704 26.719 56.3551 27.5561C56.946 28.3932 57.303 29.3319 57.4261 30.3722H53.4837C53.3298 29.7135 53.0066 29.1965 52.5142 28.821C52.0218 28.4455 51.4124 28.2578 50.6861 28.2578C49.455 28.2578 48.5194 28.7933 47.8793 29.8643C47.2453 30.9354 46.9221 32.3911 46.9098 34.2315H47.0391C47.3222 33.6714 47.7038 33.1944 48.1839 32.8004C48.6702 32.4003 49.2211 32.0956 49.8366 31.8864C50.4583 31.6709 51.1139 31.5632 51.8033 31.5632C52.9235 31.5632 53.9207 31.8279 54.7947 32.3572C55.6688 32.8804 56.3582 33.6006 56.8629 34.5178C57.3677 35.4349 57.62 36.4844 57.62 37.6662C57.62 38.9465 57.3215 40.0852 56.7244 41.0824C56.1335 42.0795 55.3056 42.8613 54.2408 43.4276C53.1821 43.9877 51.951 44.2647 50.5476 44.2585ZM50.5291 41.1193C51.1447 41.1193 51.6955 40.9716 52.1818 40.6761C52.6681 40.3807 53.0497 39.9806 53.3267 39.4759C53.6037 38.9711 53.7422 38.4048 53.7422 37.777C53.7422 37.1491 53.6037 36.5859 53.3267 36.0874C53.0559 35.5888 52.6804 35.1918 52.2003 34.8963C51.7202 34.6009 51.1723 34.4531 50.5568 34.4531C50.0952 34.4531 49.6674 34.5393 49.2734 34.7116C48.8857 34.884 48.544 35.1241 48.2486 35.4318C47.9593 35.7396 47.7315 36.0966 47.5653 36.5028C47.3991 36.9029 47.3161 37.3307 47.3161 37.7862C47.3161 38.3956 47.4545 38.9527 47.7315 39.4574C48.0147 39.9621 48.3963 40.3653 48.8764 40.6669C49.3627 40.9685 49.9136 41.1193 50.5291 41.1193Z" fill="white"/>
</svg>
