<svg width="36" height="36" viewBox="0 0 36 36" fill="none" xmlns="http://www.w3.org/2000/svg">
<rect width="36" height="36" rx="18" fill="#2C2C2C"/>
<path d="M21.3333 13.3334V11C21.3333 10.3812 21.0875 9.78769 20.6499 9.3501C20.2123 8.91252 19.6188 8.66669 19 8.66669H10.8333C10.2145 8.66669 9.621 8.91252 9.18342 9.3501C8.74583 9.78769 8.5 10.3812 8.5 11V25C8.5 25.6189 8.74583 26.2123 9.18342 26.6499C9.621 27.0875 10.2145 27.3334 10.8333 27.3334H19C19.6188 27.3334 20.2123 27.0875 20.6499 26.6499C21.0875 26.2123 21.3333 25.6189 21.3333 25V22.6667" stroke="white" stroke-width="2" stroke-linecap="round" stroke-linejoin="round"/>
<path d="M13.1665 18H29.4998M29.4998 18L25.9998 14.5M29.4998 18L25.9998 21.5" stroke="white" stroke-width="2" stroke-linecap="round" stroke-linejoin="round"/>
</svg>
