<svg width="36" height="36" viewBox="0 0 36 36" fill="none" xmlns="http://www.w3.org/2000/svg">
<rect width="36" height="36" rx="18" fill="#2C2C2C"/>
<path d="M7.42821 19.7043L7.51218 19.5576L12.5762 10.7554C12.6502 10.6265 12.8242 10.6399 12.8802 10.7799C13.7262 12.8865 14.4562 15.5065 14.1142 17.1377C13.9682 17.8088 13.5682 18.7176 13.1182 19.5576C13.0602 19.6799 12.9962 19.7999 12.9282 19.9154C12.8962 19.9688 12.8422 19.9999 12.7842 19.9999H7.57619C7.43619 19.9999 7.35419 19.831 7.42821 19.7043Z" fill="white"/>
<path d="M27.1801 24.3774L27.1802 24.3772C27.5158 23.8586 28.0602 23.426 28.5313 23.1126C28.9035 22.8649 29.261 22.6717 29.5 22.551V21.7678L24.0998 23.5024C23.4741 24.2618 22.9489 24.7708 22.8061 24.9092L22.7961 24.9189L22.7909 24.924L22.7909 24.9239C22.3368 25.3516 21.7604 25.5956 21.144 25.5956H19H18.5V25.0956V22.6667V22.1667H19H20.564L20.6849 22.0434L20.6856 22.0426C20.777 21.9497 20.8833 21.84 21.0103 21.6989L21.0103 21.6988C21.0227 21.6851 21.0349 21.6716 21.0469 21.6583C21.1175 21.5801 21.1825 21.5081 21.2467 21.4284L21.2571 21.4156L21.2682 21.4035C21.3418 21.3237 21.4175 21.2303 21.493 21.1316L21.4997 21.1229L21.5067 21.1145C21.6325 20.9643 21.7542 20.806 21.8886 20.6299L21.8948 20.6217L21.9014 20.6138C21.9774 20.5224 22.0516 20.4129 22.1379 20.2813L22.1484 20.2653L22.1601 20.2502C22.2423 20.1436 22.3259 20.0198 22.4122 19.8892C22.4463 19.8338 22.4817 19.7788 22.5145 19.7279L22.5158 19.7259C22.55 19.673 22.5819 19.6235 22.613 19.5733C22.6721 19.4745 22.7292 19.373 22.7759 19.2808L22.7825 19.2679L22.7898 19.2553C22.9419 18.9937 23.0731 18.7093 23.186 18.4189L23.1903 18.4078L23.1904 18.4078C23.2365 18.2973 23.2736 18.1799 23.3174 18.0415C23.3224 18.0259 23.3274 18.01 23.3325 17.9938C23.3771 17.847 23.4115 17.7175 23.4368 17.5843L23.4372 17.5826C23.4998 17.2595 23.5141 16.9374 23.4859 16.6121L23.4851 16.6033L23.4852 16.6033C23.4767 16.4809 23.4704 16.4061 23.4562 16.3431L23.444 16.2889V16.2453C23.4383 16.203 23.4288 16.1562 23.4169 16.1138L23.4115 16.095L23.4077 16.0758C23.3426 15.7504 23.2403 15.42 23.1081 15.0909L23.1052 15.0837L23.1025 15.0763C23.0606 14.9619 23.0107 14.8423 22.9602 14.7278C22.8356 14.4706 22.71 14.2238 22.5703 13.9889L22.5646 13.9794L22.5647 13.9793C22.5327 13.9228 22.5106 13.8873 22.485 13.8462C22.4613 13.8083 22.4347 13.7656 22.3946 13.6972L22.3942 13.6964C22.3075 13.5479 22.2112 13.4064 22.1069 13.2531C22.0826 13.2173 22.0578 13.1809 22.0326 13.1435C21.9762 13.0612 21.9202 12.9867 21.8575 12.9032C21.8192 12.8523 21.7784 12.798 21.7335 12.7366C21.6328 12.6011 21.5345 12.4726 21.4346 12.3467C21.0766 11.8977 20.6989 11.4884 20.3565 11.1342L20.3503 11.1278L20.3444 11.1212C20.2904 11.0612 20.2294 10.9991 20.1644 10.9369L20.1593 10.932L20.1543 10.9269C19.89 10.6594 19.6533 10.4308 19.4585 10.2561C19.3995 10.2055 19.3469 10.1568 19.3023 10.115C19.2924 10.1058 19.2832 10.0971 19.2744 10.0888C19.2424 10.0588 19.2168 10.0348 19.1919 10.0125C19.1334 9.96399 19.0701 9.91044 19.0223 9.87003C19.0185 9.86678 19.0147 9.86361 19.0111 9.86053L18.8512 9.8107L18.5 9.70123V9.33335V7.23556C18.5 7.01514 18.4205 6.82612 18.3031 6.69301L27.1801 24.3774ZM27.1801 24.3774C26.8605 24.8717 26.5576 25.412 26.2625 25.9382C26.2192 26.0155 26.176 26.0924 26.133 26.1689C25.7924 26.7743 25.4584 27.3535 25.0983 27.8609C24.37 28.8872 23.6203 29.5 22.656 29.5H12.51C9.29129 29.5 6.58623 26.6202 6.50202 22.92H11.5031C11.5078 23.3132 11.5938 23.7056 11.7601 24.0699C12.1684 24.9881 13.0314 25.5956 14 25.5956H16.8H17.3V25.0956V22.6667V22.1667H16.8H14.5909M27.1801 24.3774L14.5909 22.1667M14.5909 22.1667C14.8381 21.7578 15.1405 21.223 15.4411 20.6323M14.5909 22.1667L18.303 6.69293C18.1905 6.56548 18.0469 6.5 17.9 6.5C17.6214 6.5 17.3 6.77306 17.3 7.23556V8.64887V9.32835L16.6513 9.12624L16.5373 9.09072L16.5356 9.09019L16.2291 8.99349L16.2256 8.99238L16.0116 8.92665H16.0064L15.9359 8.90541L14.6333 8.51317C14.6415 8.53399 14.6523 8.55892 14.6675 8.59238C14.6709 8.59988 14.6746 8.60808 14.6786 8.61684C14.6944 8.65147 14.7142 8.69485 14.7325 8.73831C14.7902 8.8667 14.8474 9.00061 14.902 9.13328C14.949 9.24643 14.9949 9.35464 15.048 9.47266L15.0521 9.48182L15.0559 9.49114C15.0785 9.54743 15.1019 9.60516 15.1259 9.66428C15.2154 9.88514 15.3128 10.1254 15.4081 10.3822C15.4083 10.3827 15.4085 10.3833 15.4087 10.3838L15.4096 10.386C15.4876 10.5918 15.5708 10.8115 15.6445 11.0422C15.839 11.6033 16.0236 12.2028 16.1842 12.8187C16.2262 12.9643 16.2615 13.1118 16.2939 13.2474C16.3067 13.301 16.3191 13.3528 16.3313 13.4018L16.3337 13.4114L16.3357 13.4212L16.3567 13.5231C16.4216 13.8096 16.48 14.1005 16.5222 14.3973C16.5533 14.5848 16.5857 14.7834 16.6035 14.9879C16.6266 15.1908 16.6521 15.4142 16.6612 15.6409C16.6778 15.8451 16.686 16.0572 16.686 16.26C16.686 16.7796 16.644 17.2905 16.5414 17.7803L16.5397 17.7883L16.5377 17.7963C16.5326 17.8175 16.5272 17.8398 16.5216 17.8631C16.496 17.9696 16.4657 18.0953 16.43 18.2156C16.396 18.3474 16.351 18.4844 16.311 18.6061C16.298 18.6456 16.2856 18.6834 16.2742 18.7189L16.2722 18.7254L16.2721 18.7254C16.2694 18.7335 16.2666 18.7418 16.2638 18.7503C16.2361 18.8334 16.2016 18.9367 16.159 19.0394C15.9528 19.589 15.6992 20.1309 15.4411 20.6323M15.4411 20.6323C15.4409 20.6326 15.4407 20.633 15.4405 20.6333L14.996 20.4045L15.4416 20.6312C15.4415 20.6316 15.4413 20.6319 15.4411 20.6323ZM29.9309 21.6294C29.9309 21.6294 29.9309 21.6294 29.9309 21.6294L29.9309 21.6294Z" fill="white" stroke="white"/>
</svg>
